# xmcd
#
# Track frame offsets:
#   150
#   12613
#   27385
#   44520
#   53309
#   67734
#   81298
#   92782
#   105511
#   124181
#   139276
#   156333
#   173315
#   191811
#   207158
#   215171
#   226288
#   237262
#
# Disc length: 3262 seconds
#
# Revision: 0
# Processed by: cddbd v1.5.2PL0 Copyright (c) Steve Scherf et al.
# Submitted via: GXTranscoder 2.0.1939
#
DISCID=f60cbc12
DTITLE=HAYSEED DIXIE - Weapons of Grass Destruction
DYEAR=1900
DGENRE=Country
TTITLE0=Hoiliday in the sun
TTITLE1=Devil Woman
TTITLE2=I Don't feel like dancin
TTITLE3=She was skinny when I met her
TTITLE4=Strawberry fields forever
TTITLE5=Before Your Old man comes Home
TTITLE6=Breaking the Law
TTITLE7=More Pretty Girls than One
TTITLE8=Down Down
TTITLE9=Walking Cane
TTITLE10=Paint it black
TTITLE11=Hungover Brokedown
TTITLE12=Poison
TTITLE13=The RIder Song
TTITLE14=Barbeque
TTITLE15=Mein Teil
TTITLE16=I got erection
TTITLE17=Eisgekühlter Bommerlunder
EXTD=
EXTT0=
EXTT1=
EXTT2=
EXTT3=
EXTT4=
EXTT5=
EXTT6=
EXTT7=
EXTT8=
EXTT9=
EXTT10=
EXTT11=
EXTT12=
EXTT13=
EXTT14=
EXTT15=
EXTT16=
EXTT17=
PLAYORDER=
